/* XPM */
static char *_c6ab1d98c7a47a784335f6476ca1de5tZqlmlS8lNJcYu5Z[] = {
/* columns rows colors chars-per-pixel */
"64 64 5 1 ",
"  c None",
". c #6D696D",
"X c #848484",
"o c #A0A0A0",
"O c #BEC1BE",
/* pixels */
"oX.       XooX                  .                   ..    oOOooo",
"oX.      XOOoOX                 .X                  X.X  oOOOOOo",
"o.      XooOOoOOX               X.X                  X.XoOOOoOOO",
"X       oXXooXXoOX            XX.X..X       oOo      X.XooOoOOOo",
"X      .XXoXXoOOOOoo       XoXXX.   ..X    oOOOOO     ..XXoXoOoo",
"X     X.XoXXoXoOOOOoo   XooooXoX.    ...X oOoOOooO     .XXX.XooX",
"..    .. XoOOoOOoo     XooooXoX.        .XOOOoooOOo     .X.XXX. ",
" ..X X.   XXoOOo      XooOoXooX.         .XooOoOoOOo     ..X..  ",
"  X...X              XoOOXXOOX.           .XooOOOOOo      ..    ",
"    X.               oOOXXOOoX.             ..XoOOo       .     ",
"     .X             XoOXoOooX.               X...X       X.     ",
"   XX...X           oOOoOooX.                   ...     ..X     ",
" OoX.X X..          OOOOooX.     ooOoX.           X.....X       ",
"OoXoX   X..XXX      oOOoXX.    oOOOoOoX..         ...X        oO",
"oXooOX   XXoXoXX    XoXX..    OOoOOOoXXX...     X..X        oOOo",
"XoOOoX   XoooOOooX   X..     oOOOOoXXoX.. X.. X...X        OOOoX",
"oOOo.    .ooOOoOOoX         oOOOOoXXoO..    X..XXX.X      oOOoXX",
"OOoX.    .oOooOooOo         OOOoXXoOOX.     X.X XoXoX     OOoooO",
"oOX.      XoooooOOOX        oOoOOOOX..      .   XoXXoX   OOoOOOO",
"XX.        XoOOooOOo         oooOoX.       X.    XoXoX   OOOOOOo",
"            XoOOOoOoX                      .     XooX.    oOOoX.",
"             XoOOOOoX                      .      XoX.     XXX  ",
"              XoOooX       oOOoX          .       .X.           ",
"                XXo       oOOOOOoX            oo   .            ",
"       oOo               oOOOOOOOoX          oOOo               ",
"      oOOOo              OOOOOoOOooX        oOOOO               ",
"     oOOoOOo             oOOoOOoOOooX       OOoOOo         oOOo ",
"     OOooOOo              oOOooooOOoX       OOOoOX        oOOOOo",
"    oOOoOOo               XoOOoXoOoO.      oOOOoO.       oOOOOOO",
"o   OOoXOOX                XooOOXXOoX.     OOOoOX.       OOOOoOO",
"O  oOOXoOX      oOOOo       XooOOX.XX.    OOOoXo.       oOOOoOOO",
"Oo oOoXOXX    oOOOOOOo       XooooX...    oOoXoX.       OOOOoOOO",
"Oo ooXXo.    oOOOoOOOX        ..XX.X..X   XoXXo.        OOOoXOOO",
"Oo oXXXX.   oOOooOoOoX          ..XXX..    XXoX.        oOoo.oOO",
"oo X.XX.   oOoOOooOOX                X.     XX.          oOo.XOo",
"oX X.X..  oooOoooOOoX                 .X    X.           ooOX.oO",
"X   X..   XoooXoOOo.                   .    X.oOo         XoX.XX",
"X    .X   XoXXoOoo.                    .  XX.oOOOo         XoX.X",
".     .    XXooo..                     ..X..oOoOOOO         XX..",
"X.   ...    XX..                       ...oOOoXoOOo           X.",
" X..XX X.X X..            oOOOoX      ..XXOoXXoOOo    oOo       ",
"        ......X          oOOOOOOX     .. XXXoOOoX    OOOOo      ",
"         .X  X..X       oOoooOoooX   ..X  .XXX..    oOOOoOX     ",
"         .      .X      OOOoXooOooX .X.X   ...      OOooOoX     ",
"        X.       .X    oOOoOoXXoOoX.X  X            OoXXoX      ",
"      XX.         .    OOOOOOooXoX.    .            XXXoX       ",
"    oooX.oX       .     oOOOoOXX..     .X           X..X        ",
"   ooOo.XoX      X..     oOooX..        .X         X..X         ",
"  oOOoO.XooX    X.X..X                   .X      X..            ",
"  OoOOoXoOoX    ..  X..                   .XX  ...              ",
"  OOOOXoOOOX   XX..   ..                  XoXXXX.X         oOO  ",
"  oOOooOOOo.  XooX.X   X.                oOOoXX.X         OOOoO ",
"   OOOOOOoX  ooOoXX.    ..XXXo           OOoX..XoX       oOOOooO",
"   oOOoOoX.  oOoOoX.     ..XoOOo        oOOOoXooOo       OOOoXoO",
"    oOOoo.  oOOOooX.     .X..ooOo       OOOoXoOOOX      oOOOo.Xo",
"     oooX   OOOooX.X     XooX.Xooo      OOooOOOOoX      oOOoX.oo",
"            OOoXX.XO     .XooXXXoOo     oOOOOOOoX.X     XoOX.XoX",
"            oOOOoXOO     .XoOoXoooO      OOOOOoX...      XoX..X.",
"             oOOOOOo      .XoOOoOOOO      oOoX..  .X      XX... ",
"              oOOOo        .XoOOoOOO       X..     .        X.  ",
"X              ooo          .XoOOOOo               .        X.oo",
"oX                           XooOOo                .X       XX.o",
"ooX                            Xoo                  .X     XooXo",
"ooX                                                 ..     ooooo"
};
