/* XPM */
static char *cab088f7dfe440b0ff89c33cc7fcf2a2AuZ0Tv1uOe22DhPR[] = {
/* columns rows colors chars-per-pixel */
"64 64 11 1 ",
"  c None",
". c #706D70",
"X c #A98B22",
"o c #C09E27",
"O c #D8B749",
"+ c #EAD079",
"@ c #888787",
"# c #989998",
"$ c #A4A6A4",
"% c #B7B9B7",
"& c #ECDCA5",
/* pixels */
"       @@.@@@     .##@@.@##$#@@    #$$%%%$$$#@#$$$#@@##@.#####@.",
".      @@.@#@     .@##@@..@#$$@   #$%$$%$$#@@#$%$#@ @#$@.@$$#$#@",
".     @#@.@@#@     .####@..@#$#@  #%$%%$#@@#%%$$#@  .#$#@.#$$###",
"@.  @@##.@#@#@     .@#$##@..@#$#  #%%$#@@#$$%$$#@   .@#$#.@#$$##",
"#@@@####.@####@     .@#$##@@.@#$@ #%$#@@#$%%$#@@     @#$$@.@##$#",
"$###$$#@.###$#@     .@##$#$#@.###  #$$#$%%$#@@       .@#$#@@@##@",
"%$#$$$@.@$$#$#@      .@#$$###@.@## #$%%%%#@@          @@#$###@@#",
"$%$$%$@.#%$$$#@      .@@#$$$##@.@@# #$%%#@             .@###@@#$",
"$$$%%#.@$%%$$#@       .@##$$$##@.@@# ###                ..@@##$$",
"%$%$%@.#%%%$$#@        .@###$$##@.@#                      ..@%$%",
"%%%%$.@%$%%%$@          ..@##$$##@.@#                       #$%$",
"$%$$#@#$%%%$#@            ..@##$@@ .@#                      #%$$",
"%$$#@#$%%%$$@             @@..#@@.  .@@         $#oXX      #$$$%",
"$#@@$$%%$%$#@           @@@@@....    .@@      $#oooooXX    #$%%%",
"@@#$$%$$%%#@          @@##@@...@      ..@@#$$#ooO++++OoX   #%%$#",
"$#$%%$$%%$@         #@@##@...@@@        ..@##oOO+&&&++Oo  #%$##$",
"%$%%%%%%#@        ####$#@...@@@          ###oO++&&&&&+Oo  #$#$$%",
"%%$%%%$#@       ##$#$$#@..@@@#@          #$$o++&&&&&&+Oo  #$%%%%",
"%%%$$#@@       #$$%%$#@.@@#@#@            #$o+&&&&&&+OOo @##$$%%",
"%$$#@@        #$%%%$#@@@@###@              #o+&&&&&+OOoo##@@#$$%",
"$#@@         #$$%%$#@.#####@                oO+++++OOooX#$$#@@@$",
"@@          #%$%%$#@.#$#$#@                  oOOOOoooXX#$$%$$##@",
"           #%$%%%#@@##%$#@                    XXoooXXX.@#$%%$$# ",
"           #%$%%#@#%$%%$#@                      XXXX@#@.@$%%%$  ",
"          #$$%%$@#$$%%%#@                          @#$#..$%$%$# ",
"          #%$%%#@$$%%%$#@                          @$$$@.#%$%%# ",
"         ##%%%$@#$%%%$#@           ###@@@@....    @#$%$#@#$$%%$#",
"         #$%%$$@#%%$%##         ###$$##@........  @#%%%$@@$$%$%$",
"        #$%%%%#@$%%%$#        #$$%$$#@..@@     .. @$%%$%#@$%%$%$",
"        #%%$%$@#%ooo#       ##$%%$$@..@##@      ..@$%$%%$@#%%%$#",
"        #%$$%#@%o+++o      ##$%%$#@.@@##@        .@#$$%%%##$%$$ ",
"        $%$%#@#o+&&&+o     #$$%%#@.@####@          @$%$%%##$%$# ",
"        %%%$#@o+&&&&&+o   #$$%%$#@@##$#@           ##%$$%#$%$#  ",
"         %%$@#o&&&&&&+o   #$%$%$@@#$$#@             #%$$$#$%$#  ",
"         $%##o+&&&&&&+oX #$%%%$#@#$%#@              #$%$$#%%#   ",
"          ###o&&&&&&&+OX $%%%$#@#$%%#@               #%$#$%$#   ",
"      $$$#$##X&&&&&&&+OX#$%$%$@@$$%$@                #$$#$$#    ",
"    ##$$$$#@#X+&&&&&++OX$%%$$#@#$%%#@                 ##$$#     ",
"   @#$$#@...@#o+&&++++OX$%%%$@#$%%$@           ..@@@   ###      ",
"  @#$##..@@#$$o++++++OXX#$%%#@$$%$$@          .@@@####          ",
" @@##@..@#$$$#XoO++OOoX #$$$#@#%%$#@         .@@@##$$$$##       ",
" .@@@..##$$##@.XoOOoooX ##%$#@.$%$#@        ....@@@##$$$%$$#    ",
" .@@.@##$$#@.. XoooooXX @#$%$@.#%%#@      ........@@###$$%%$##  ",
" .@.@##$#@..   XooooXX   @$$$#.#$%$@    .......@@@....@##$%%%$$ ",
"#@.@@####.      XoXXX    @#$$$@.#%$#@ ...   ..@@#@@@@@...@@##%$#",
"$@..@@#@.        XXX      @#$##.@$%$@..      ..@@######@@...@#$$",
"$#@...@.                  @####@.#$$.@        ..@@#$####@@#@.@#$",
"%$#@...                    @####.@#$#@          ..@#$$#$####@.@$",
"%%$##                       @@###.@###@           @@#$$$%$$##@@#",
"$%%$#               @         @@@######@           @##$%%%%%$#@#",
"%$%$$#             @#            @@@@@@             @###$%%$%$#@",
"#$%%$$             @#@                              @@####$%%$$#",
"@#%$%$#           @$#@                             @..    #$%%$#",
"#@$%%%#           ##$#@                           @@.      #$%%$",
"$@#$%$$#         @#@$$##                         @..        #%%%",
"$#@%$$%#         @$.@$#@                        @..         #$%%",
"%$@#$%%#         @$@.#$#@                     #@..@.         #$%",
"%%#@$%$#         $##.@$#@                   ##$#.@#@..       #$%",
"%%$#%%#         @$$#@.#$@@                #$$%$$@@###@@       #%",
"%%%#$$#         @#$$#.@$$@              ##$%%%%#@#%$##@.      #$",
"$%%$$#   #      @#$$#@.#$#@            #$$%$$%$@#$%%$##@..     #",
"#$%$#    @      @##$#@.#$$#@         #$$%$$$%%#@#%%$$$@@.@@@    ",
" ###     @#      @#$$#.@##$#@       #$$%%%$%%$@#%%$%%#@..@###   ",
"        @@@#     .@#$#@.@####@     %$%%%%%%$$#@$%$$%#@@.@##$$#  "
};
