/* XPM */
static char *e3872b469ddd4670d933c2aee6821c49rJtG1WpMESjR6GMr[] = {
/* columns rows colors chars-per-pixel */
"64 64 7 1 ",
"  c None",
". c #686468",
"X c #777577",
"o c #858485",
"O c #989998",
"+ c #A8AAA8",
"@ c #B9BCB9",
/* pixels */
"oXX..XX.O+@+O          XXoooo     XooOO+OooO@+           O+O++Oo",
"X...X    O@O         XXooooOooo    XOO++@OOoO@O         o+@++OoX",
"ooXX     O+@       XXoooOoOOOooX   XoOO@@@OoO++        oO@+OOoXo",
"ooX       O+      XXXXoooO+++OOoo   oXO++@+Oo@+        O@@OooOOO",
"ooX        O+    X...XXXooOO@+oOO     oO+++@+@++      o+@OoOOoOo",
"oX          O  X..XXXoooXXoO+@+O@O     oO+++@+@+.     O@@o+O++Oo",
"X             ..  XooOOooOOXXO@@++      O++@@+@@.XX   @++oO@+Ooo",
"             .X    XXoOOO++OOo+@@+       O+@@@@+X.+X  @@OO@++Oo ",
"            .X       XooO+@@+Oo+@@O      O+@+@@+X+o+X +@+@@+O   ",
"     XXXX  ..           o+O+@+Oo+@+       O++@+Oo+@@o @@+@@+    ",
"   OXooooX...             OO+@@+O@@+       +@@+O o+@o ++@+@+    ",
" OOOo+OoX.. X.              OO@@O@++        O@+   o@  +@+@++    ",
"O@@+OOoXXXX  X.               O+@@@+         +O    +   +@@+     ",
"@++@+oO+OoXX  X..              O+@@O         +O        O@+@    O",
"@@@OO+++@OoX    X.              O@O         +O          +O++  O@",
"+@O@+++@++oX     X..   XXXX     O+O               XXXXX      O@+",
"@O@+++@++Ooo       X..XOOooX     O               XooooOoooX  o++",
"O+@@@@@OooX         XXOOOOooX    O           .X.XXoOOOoOOOOooXO@",
"@@@+@@OOoX         XO@+OooooXX            ...X XoXXXOo+++O++Ooo+",
"+@+@OOoo          XO@++@OoXXX...X       ..X    XooOXXXOO@+@@+OoO",
"+@@O              O@++@oXXoooXX ..X   ..X      XOOOO+OXXO@+@++oO",
"@@X              XO@+@OXoO+O+oX   X.X.X        ooOOO+@++XO@+@+Oo",
"oO            o..O@+@OoOO++@OOX    .XX          oO+O++@@+oOO+@+O",
"O            o..O@++++O+@@@++OX     XX          oOO++@@@+@oO+@++",
"O           o.o.O@++@+O+@@+@OX       XX         oO+OO++@@+@oOO@+",
"+O         o+o+.O@+@@O+@@+++OX     ...X          oO+++O@@@@@oO+@",
"+O.X       +o+o O@+@+@@@@+@OX     .X  .. X..      oOO+O++@@OoO@+",
"OO ...     ++o  O@@@@@@++@OOX    .X    XX..X..      XO+O+@@@O@@+",
"O   XX..   +o   O@++@@@@@@OX   .XX     ...XXXo.      XOOO+@@O@++",
"O     X..   o    O+@+@+@@OX   .X       .X.XoXo.        XOO++@@++",
"O       X.       O@@+@+@OX   .X       ..XX.XoXX.         XO++@@+",
"O        X.X     O@@+@@OX   X.        .XoX.XXooX.         OO@@@+",
"O          .X     @@@@OX   X.        ..XoXX.OoOX.          O+@++",
"            .X    O@@OX   .X         .XXoXOXXoOoX           O@+O",
"             ..X  XO@OX  .X           .oXoOOXOOOX.          O@+O",
"      OOOOo    .X  XOX X......        .XXoo+OX++X.           +O ",
"     @++Oo.o    X. XO .XX...X...       .XXooOOO+O.           +O ",
"    @@ooooo.     XX X.X ..X.XXXX.       .XXO+OO@+O          OO  ",
"    @o+++Oo.X     ...X  .XOX.OOOXo       ..XO+OO@@O         O   ",
"   Oo+@Ooo. ..X    X.   XO+OX.O+Oo         .XO@@@@O             ",
"   @@@        .X  X.   XO+@OOOX+@Oo         .XO@@OO             ",
"   +@          .X .    O+O+@+OXO@+O          XXXOOX             ",
"   +            ..X    oOO+@@+OX+@O             XOX             ",
"    oooXX..     .X     oOOO+@+OXO@+              X.             ",
"  ooOOooXXX.   .X       oO++@+@OXO@+             .              ",
" OOO+O+OoXXX...X         OO+@@++O@@+                            ",
"O++@++oooX...X             O+@@+@+@+            ..XX            ",
"+@@OOooXX..X.                O+@@+++          ..XXXXX           ",
"@+OoXXooooXX.                 O@@@++         ...XooooX         O",
"@+oXooOooooXX                  O@@+@        ..XXXXoO+oo        O",
"@OoOOO+OooooX                  O@@@+     ...X...XXO+@@OO      +@",
"@oO+@@++OoXX     XXXXX..        O@+O   ..XX  .X...XO+@++O     +@",
"+O+@++OOoo     XXoooooX...       OO   .X     .oXXo.XO@@+O     @@",
"O++@+Ooo      XOOOOooXX....       O  .X      .XooOoXoO@+@O    @@",
"O+@+@O       OO++OOoXX.XX.XX         .       .XXo+OO@oO+++    @+",
"+@@@O       ++@+OoXXooooX. .X       .X        .XOO@@+@O@+@+    @",
"@@+O       +@@+OoXooOooo..  ..     ..          XoO+++@@O+@+    @",
"@+O       O+@+OoOO+@+OoXX    X.   .XXXXoo        oO++@+O@@+    O",
"+O        +@+O@++@@+ooXX      X. ...Xoooooo        O++@@@+O     ",
"+        O@@O@+@+@+OXoX        ..XX...XOOOoo        O++@@+      ",
"O        +@+O@@@@OOo          XXXXXoX..XooOoo        O+++O      ",
"        O@@O@@+@OO           .X  XoooooXoOOOo         O+O       ",
"        O++@@++O            .X   XooooOoXooO+o         +O   oXXX",
"XX.    .OO+@@+O            .X    XoOOOoOoXO+@O         O  oOoooo"
};
